<svg width="344" height="125" viewBox="0 0 344 125" fill="none" xmlns="http://www.w3.org/2000/svg">
<path d="M81.1672 137.977H59.7402V109.353H81.1672V114.587H65.0969V121.17H80.5948V126.2H65.0969V132.661H81.1672V137.977ZM85.956 121.17H98.6634V125.75H85.956V121.17ZM108.695 109.353V132.988H123.416V137.977H103.297V109.353L108.695 109.353ZM149.331 137.977H127.904V109.353H149.331V114.587H133.261V121.17H149.331V126.2H133.261V132.661H149.331V137.977ZM173.825 132.579H158.859L156.405 137.977H150.558L163.398 109.353H169.286L182.126 137.977H176.237L173.825 132.579ZM166.342 115.364L161.026 127.55H171.658L166.342 115.364ZM209.523 137.977H203.103L194.761 128.408H189.568V137.977H184.17V109.312C188.709 109.312 193.248 109.353 197.787 109.353C204.534 109.394 208.091 113.892 208.091 118.84C208.091 122.765 206.292 126.732 200.854 127.836L209.523 137.609V137.977ZM189.568 114.383V123.542H197.787C201.222 123.542 202.694 121.252 202.694 118.962C202.694 116.672 201.181 114.383 197.787 114.383L189.568 114.383ZM230.54 109.312H235.937V137.977H232.584V138.017L217.536 118.676V137.977H212.139V109.353H216.514L230.54 127.1V109.312ZM240.926 137.977V109.353H246.283V137.977H240.926ZM270.163 109.312H275.56V137.977H272.207V138.017L257.159 118.676V137.977H251.762V109.353H256.137L270.163 127.1V109.312ZM301.772 116.345C299.779 114.529 297.188 113.51 294.493 113.483C288.359 113.483 284.638 118.144 284.638 124.033C284.638 128.735 287.378 133.601 294.493 133.601C296.742 133.601 298.705 133.111 300.954 131.312V126.241H293.634V121.416H305.902V133.479C303.08 136.709 299.522 138.631 294.493 138.631C283.738 138.631 279.363 131.557 279.363 124.033C279.363 115.977 284.393 108.535 294.493 108.535C298.475 108.537 302.295 110.109 305.125 112.911L301.772 116.345Z" fill="white"/>
<path d="M184.169 124.51V122.669" stroke="#111416" stroke-width="0.915" stroke-linecap="round" stroke-linejoin="round"/>
<path d="M212.138 121.42V134.31" stroke="#111416" stroke-width="0.915" stroke-linecap="round" stroke-linejoin="round"/>
<path d="M212.138 118.658V116.817" stroke="#111416" stroke-width="0.915" stroke-linecap="round" stroke-linejoin="round"/>
<path d="M230.388 109.312H237.93" stroke="#111416" stroke-width="0.915" stroke-linecap="round" stroke-linejoin="round"/>
<path d="M235.936 120.017V107.128" stroke="#111416" stroke-width="0.915" stroke-linecap="round" stroke-linejoin="round"/>
<path d="M235.936 122.779V124.62" stroke="#111416" stroke-width="0.915" stroke-linecap="round" stroke-linejoin="round"/>
<path d="M259.269 113.316L263.718 118.946" stroke="#111416" stroke-width="0.915" stroke-linecap="round" stroke-linejoin="round"/>
<path d="M265.396 121.068L266.286 122.196" stroke="#111416" stroke-width="0.915" stroke-linecap="round" stroke-linejoin="round"/>
<path d="M251.762 129.246V120.408" stroke="#111416" stroke-width="0.915" stroke-linecap="round" stroke-linejoin="round"/>
<path d="M293.634 121.416H307.327" stroke="#111416" stroke-width="0.915" stroke-linecap="round" stroke-linejoin="round"/>
<path d="M305.9 131.318V119.165" stroke="#111416" stroke-width="0.915" stroke-linecap="round" stroke-linejoin="round"/>
<path d="M163.396 109.352H171.713" stroke="#111416" stroke-width="0.915" stroke-linecap="round" stroke-linejoin="round"/>
<path d="M168.461 107.512L174.089 120.058" stroke="#111416" stroke-width="0.915" stroke-linecap="round" stroke-linejoin="round"/>
<path d="M175.034 122.166L175.848 123.982" stroke="#111416" stroke-width="0.915" stroke-linecap="round" stroke-linejoin="round"/>
<path d="M81.1665 113.687V107.058" stroke="#111416" stroke-width="0.915" stroke-linecap="round" stroke-linejoin="round"/>
<path d="M72.3306 109.352H83.5625" stroke="#111416" stroke-width="0.915" stroke-linecap="round" stroke-linejoin="round"/>
<path d="M59.7402 130.259V122.157" stroke="#111416" stroke-width="0.915" stroke-linecap="round" stroke-linejoin="round"/>
<g style="mix-blend-mode:multiply">
<path d="M242.598 137.977L246.282 134.292V132.784L241.09 137.977H242.598ZM240.926 132.053L246.282 126.697V125.189L240.926 130.546V132.053ZM240.926 135.851L246.282 130.494V128.987L240.926 134.344V135.851ZM246.282 137.977V136.582L244.888 137.977H246.282ZM240.926 124.458L246.282 119.101V117.594L240.926 122.951V124.458ZM240.926 115.355V116.862L246.282 111.506V109.998L240.926 115.355ZM240.926 120.66L246.282 115.304V113.796L240.926 119.153V120.66ZM240.926 128.256L246.282 122.899V121.391L240.926 126.748V128.256ZM243.13 109.353L240.926 111.557V113.065L244.637 109.353H243.13Z" fill="#B8D1CD"/>
</g>
<g style="mix-blend-mode:multiply">
<path d="M229.647 102.392L232.609 105.312V102.392H235.516V91.5133H214.452V102.392H229.647Z" fill="#A6BDB9"/>
</g>
<path d="M230.085 94.208H213.899" stroke="#111416" stroke-width="0.915" stroke-linecap="round" stroke-linejoin="round"/>
<path d="M230.085 96.9506H211.874" stroke="#111416" stroke-width="0.915" stroke-linecap="round" stroke-linejoin="round"/>
<path d="M224.206 99.6929H211.874" stroke="#111416" stroke-width="0.915" stroke-linecap="round" stroke-linejoin="round"/>
<path d="M85.7453 82.8448H81.2344V87.3561H85.7453V82.8448Z" fill="white"/>
<g style="mix-blend-mode:multiply">
<path d="M85.7453 91.2227H81.2344V95.7336H85.7453V91.2227Z" fill="#A6BDB9"/>
</g>
<path d="M91.7065 84.226H107.499" stroke="#111416" stroke-width="0.915" stroke-linecap="round" stroke-linejoin="round"/>
<path d="M90.6245 86.804H107.498" stroke="#111416" stroke-width="0.915" stroke-linecap="round" stroke-linejoin="round"/>
<path d="M91.7065 92.5118H107.361" stroke="#111416" stroke-width="0.915" stroke-linecap="round" stroke-linejoin="round"/>
<path d="M90.6245 95.0898H107.498" stroke="#111416" stroke-width="0.915" stroke-linecap="round" stroke-linejoin="round"/>
<path d="M82.0869 84.5493L83.4896 85.9517L87.45 81.9916" stroke="#111416" stroke-width="0.915" stroke-linecap="round" stroke-linejoin="round"/>
<path d="M82.0869 93.1116L83.4896 94.5143L87.45 90.5538" stroke="#111416" stroke-width="0.915" stroke-linecap="round" stroke-linejoin="round"/>
<path d="M259.969 69.9347C260.648 68.522 260.838 66.9231 260.508 65.3905C260.178 63.858 259.346 62.4791 258.145 61.4716C256.944 60.4641 255.441 59.8854 253.875 59.8269C252.308 59.7684 250.767 60.2335 249.494 61.1486L249.488 61.1504C248.879 59.5369 247.763 58.1644 246.308 57.239C244.853 56.3137 243.137 55.8854 241.418 56.0185C239.698 56.1516 238.068 56.8389 236.773 57.9772C235.478 59.1155 234.586 60.6434 234.233 62.3314C233.158 61.897 231.981 61.7831 230.842 62.0033C229.704 62.2235 228.654 62.7685 227.819 63.5725C226.984 64.3764 226.399 65.405 226.135 66.5339C225.872 67.6629 225.941 68.844 226.334 69.9347L259.969 69.9347ZM315.422 81.1878C315.425 81.1189 315.432 81.0512 315.432 80.9811C315.432 80.5176 315.341 80.0586 315.164 79.6304C314.986 79.2022 314.726 78.8131 314.398 78.4853C314.071 78.1576 313.682 77.8976 313.253 77.7202C312.825 77.5429 312.366 77.4516 311.903 77.4516C311.663 77.4516 311.423 77.4757 311.188 77.5236H311.188C311.19 77.4679 311.194 77.4133 311.194 77.3572C311.193 76.671 311.03 75.9947 310.718 75.3835C310.406 74.7723 309.954 74.2435 309.399 73.8405C308.844 73.4375 308.201 73.1716 307.523 73.0645C306.845 72.9575 306.152 73.0124 305.499 73.2247C304.905 72.3332 304.04 71.6567 303.031 71.2951C302.023 70.9335 300.925 70.9061 299.899 71.2169C298.874 71.5277 297.976 72.1602 297.338 73.0208C296.7 73.8815 296.356 74.9246 296.357 75.9959V75.9966C295.599 75.686 294.77 75.5926 293.962 75.7268C293.154 75.861 292.399 76.2175 291.782 76.7563C291.165 77.2952 290.71 77.9952 290.469 78.7779C290.227 79.5605 290.208 80.395 290.414 81.1878L315.422 81.1878Z" fill="white"/>
<path d="M263.213 73.1781C263.893 71.7654 264.083 70.1665 263.752 68.6339C263.422 67.1014 262.591 65.7225 261.39 64.715C260.189 63.7074 258.686 63.1288 257.119 63.0703C255.553 63.0118 254.011 63.4769 252.738 64.392L252.733 64.3938C252.124 62.7803 251.008 61.4078 249.553 60.4825C248.098 59.5571 246.382 59.1288 244.662 59.2619C242.943 59.395 241.313 60.0824 240.018 61.2207C238.722 62.359 237.831 63.8868 237.478 65.5748C236.403 65.1404 235.225 65.0265 234.087 65.2467C232.949 65.4669 231.899 66.0119 231.063 66.8159C230.228 67.6198 229.643 68.6484 229.38 69.7773C229.116 70.9063 229.185 72.0874 229.578 73.1781L263.213 73.1781Z" stroke="#111416" stroke-width="0.915" stroke-linecap="round" stroke-linejoin="round"/>
<g style="mix-blend-mode:multiply">
<path d="M294.427 92.7565C294.427 91.7921 294.713 90.8493 295.248 90.0473C295.784 89.2454 296.546 88.6203 297.437 88.2512C298.328 87.8821 299.308 87.7854 300.254 87.9735C301.2 88.1616 302.069 88.626 302.751 89.3079C303.433 89.9898 303.897 90.8586 304.085 91.8045C304.274 92.7504 304.177 93.7309 303.808 94.6219C303.439 95.513 302.814 96.2745 302.012 96.8104C301.21 97.3462 300.268 97.6322 299.303 97.6323C298.01 97.6323 296.77 97.1186 295.855 96.2043C294.941 95.2899 294.427 94.0497 294.427 92.7565V92.7565Z" fill="#A6BDB9"/>
</g>
<path d="M301.247 92.757H297.358" stroke="#111416" stroke-width="0.915" stroke-linecap="round" stroke-linejoin="round"/>
<path d="M299.302 94.7007V90.8123" stroke="#111416" stroke-width="0.915" stroke-linecap="round" stroke-linejoin="round"/>
<g style="mix-blend-mode:multiply">
<path d="M281.537 78.0115H245.598V103.013H281.537V78.0115Z" fill="#A6BDB9"/>
</g>
<path d="M279.478 79.8096H281.537" stroke="#111416" stroke-width="0.915" stroke-linecap="round" stroke-linejoin="round"/>
<path d="M245.597 79.8096H274.199" stroke="#111416" stroke-width="0.915" stroke-linecap="round" stroke-linejoin="round"/>
<path d="M245.597 100.148H281.536" stroke="#111416" stroke-width="0.915" stroke-linecap="round" stroke-linejoin="round"/>
<path d="M259.139 103.013V107.635" stroke="#111416" stroke-width="0.915" stroke-linecap="round" stroke-linejoin="round"/>
<path d="M267.996 103.013V107.635" stroke="#111416" stroke-width="0.915" stroke-linecap="round" stroke-linejoin="round"/>
<path d="M275.417 107.635H251.718V109.353H275.417V107.635Z" stroke="#111416" stroke-width="0.915" stroke-linecap="round" stroke-linejoin="round"/>
<path d="M279.343 101.995C279.572 101.995 279.757 101.81 279.757 101.581C279.757 101.352 279.572 101.167 279.343 101.167C279.114 101.167 278.929 101.352 278.929 101.581C278.929 101.81 279.114 101.995 279.343 101.995Z" fill="#111416"/>
<path d="M276.709 101.995C276.937 101.995 277.123 101.81 277.123 101.581C277.123 101.352 276.937 101.167 276.709 101.167C276.48 101.167 276.294 101.352 276.294 101.581C276.294 101.81 276.48 101.995 276.709 101.995Z" fill="#111416"/>
<path d="M274.074 101.995C274.303 101.995 274.488 101.81 274.488 101.581C274.488 101.352 274.303 101.167 274.074 101.167C273.845 101.167 273.66 101.352 273.66 101.581C273.66 101.81 273.845 101.995 274.074 101.995Z" fill="#111416"/>
<path d="M270.162 109.352V113.088H283.297" stroke="#111416" stroke-width="0.915" stroke-linecap="round" stroke-linejoin="round"/>
<path d="M285.715 113.089H286.268" stroke="#111416" stroke-width="0.915" stroke-linecap="round" stroke-linejoin="round"/>
<path d="M288.615 113.089H289.167" stroke="#111416" stroke-width="0.915" stroke-linecap="round" stroke-linejoin="round"/>
<path d="M291.515 113.089H292.067" stroke="#111416" stroke-width="0.915" stroke-linecap="round" stroke-linejoin="round"/>
<path d="M294.415 113.089H294.967" stroke="#111416" stroke-width="0.915" stroke-linecap="round" stroke-linejoin="round"/>
<path d="M297.315 113.089H297.867" stroke="#111416" stroke-width="0.915" stroke-linecap="round" stroke-linejoin="round"/>
<path d="M300.215 113.089H300.767" stroke="#111416" stroke-width="0.915" stroke-linecap="round" stroke-linejoin="round"/>
<path d="M303.115 113.089H303.668" stroke="#111416" stroke-width="0.915" stroke-linecap="round" stroke-linejoin="round"/>
<path d="M306.014 113.089H309.398" stroke="#111416" stroke-width="0.915" stroke-linecap="round" stroke-linejoin="round"/>
<path d="M335.5 110.081H309.399V120.086H335.5V110.081Z" stroke="#111416" stroke-width="0.915" stroke-linecap="round" stroke-linejoin="round"/>
<path d="M311.156 112.975V111.748H312.382" stroke="#111416" stroke-width="0.915" stroke-linecap="round" stroke-linejoin="round"/>
<path d="M314.181 112.975V111.748H315.408" stroke="#111416" stroke-width="0.915" stroke-linecap="round" stroke-linejoin="round"/>
<path d="M317.205 112.975V111.748H318.431" stroke="#111416" stroke-width="0.915" stroke-linecap="round" stroke-linejoin="round"/>
<path d="M320.23 112.975V111.748H321.457" stroke="#111416" stroke-width="0.915" stroke-linecap="round" stroke-linejoin="round"/>
<path d="M323.256 112.975V111.748H324.482" stroke="#111416" stroke-width="0.915" stroke-linecap="round" stroke-linejoin="round"/>
<path d="M326.281 112.975V111.748H327.508" stroke="#111416" stroke-width="0.915" stroke-linecap="round" stroke-linejoin="round"/>
<path d="M329.305 112.975V111.748H330.531" stroke="#111416" stroke-width="0.915" stroke-linecap="round" stroke-linejoin="round"/>
<path d="M332.33 112.975V111.748H333.556" stroke="#111416" stroke-width="0.915" stroke-linecap="round" stroke-linejoin="round"/>
<path d="M311.156 115.856V114.63H312.382" stroke="#111416" stroke-width="0.915" stroke-linecap="round" stroke-linejoin="round"/>
<path d="M314.181 115.856V114.63H315.408" stroke="#111416" stroke-width="0.915" stroke-linecap="round" stroke-linejoin="round"/>
<path d="M317.205 115.856V114.63H318.431" stroke="#111416" stroke-width="0.915" stroke-linecap="round" stroke-linejoin="round"/>
<path d="M320.23 115.856V114.63H321.457" stroke="#111416" stroke-width="0.915" stroke-linecap="round" stroke-linejoin="round"/>
<path d="M323.256 115.856V114.63H324.482" stroke="#111416" stroke-width="0.915" stroke-linecap="round" stroke-linejoin="round"/>
<path d="M326.281 115.856V114.63H327.508" stroke="#111416" stroke-width="0.915" stroke-linecap="round" stroke-linejoin="round"/>
<path d="M329.305 115.856V114.63H330.531" stroke="#111416" stroke-width="0.915" stroke-linecap="round" stroke-linejoin="round"/>
<path d="M332.33 115.856V114.63H333.556" stroke="#111416" stroke-width="0.915" stroke-linecap="round" stroke-linejoin="round"/>
<path d="M311.156 118.738V117.511H312.382" stroke="#111416" stroke-width="0.915" stroke-linecap="round" stroke-linejoin="round"/>
<path d="M314.181 118.738V117.511H315.408" stroke="#111416" stroke-width="0.915" stroke-linecap="round" stroke-linejoin="round"/>
<path d="M317.205 118.738V117.511H327.506" stroke="#111416" stroke-width="0.915" stroke-linecap="round" stroke-linejoin="round"/>
<path d="M329.305 118.738V117.511H330.531" stroke="#111416" stroke-width="0.915" stroke-linecap="round" stroke-linejoin="round"/>
<path d="M332.33 118.738V117.511H333.556" stroke="#111416" stroke-width="0.915" stroke-linecap="round" stroke-linejoin="round"/>
<path d="M279.294 70.6925H274.201V100.149H279.294V70.6925Z" fill="white"/>
<path d="M279.294 75.3915H274.201V77.248H279.294V75.3915Z" fill="#A6BDB9"/>
<path d="M279.294 93.5858H274.201V95.4424H279.294V93.5858Z" fill="#A6BDB9"/>
<path d="M274.201 75.3915H279.294" stroke="#111416" stroke-width="0.915" stroke-linecap="round" stroke-linejoin="round"/>
<path d="M274.201 77.2478H279.294" stroke="#111416" stroke-width="0.915" stroke-linecap="round" stroke-linejoin="round"/>
<path d="M274.201 95.4496H279.294" stroke="#111416" stroke-width="0.915" stroke-linecap="round" stroke-linejoin="round"/>
<path d="M274.201 93.5935H279.294" stroke="#111416" stroke-width="0.915" stroke-linecap="round" stroke-linejoin="round"/>
<path d="M279.294 70.6925H274.201V100.149H279.294V70.6925Z" stroke="#111416" stroke-width="0.915" stroke-linecap="round" stroke-linejoin="round"/>
<path d="M277.571 82.6823H275.921V88.1585H277.571V82.6823Z" fill="white" stroke="#111416" stroke-width="0.915" stroke-linecap="round" stroke-linejoin="round"/>
<path d="M274.2 94.3287H252.9V100.148H274.2V94.3287Z" stroke="#111416" stroke-width="0.915" stroke-linecap="round" stroke-linejoin="round"/>
<path d="M256.511 95.9348H255.11V98.5417H256.511V95.9348Z" stroke="#111416" stroke-width="0.915" stroke-linecap="round" stroke-linejoin="round"/>
<path d="M268.442 95.7209V98.7563" stroke="#111416" stroke-width="0.915" stroke-linecap="round" stroke-linejoin="round"/>
<path d="M269.781 95.7209V98.7563" stroke="#111416" stroke-width="0.915" stroke-linecap="round" stroke-linejoin="round"/>
<path d="M271.121 95.7209V98.7563" stroke="#111416" stroke-width="0.915" stroke-linecap="round" stroke-linejoin="round"/>
<path d="M274.2 84.9043H251.789V91.4188H274.2V84.9043Z" stroke="#111416" stroke-width="0.915" stroke-linecap="round" stroke-linejoin="round"/>
<path d="M254.788 88.1614C254.788 87.7785 254.901 87.4041 255.114 87.0858C255.327 86.7674 255.629 86.5192 255.983 86.3727C256.337 86.2262 256.726 86.1878 257.102 86.2626C257.477 86.3373 257.822 86.5217 258.093 86.7925C258.364 87.0632 258.548 87.4082 258.623 87.7838C258.698 88.1594 258.659 88.5487 258.513 88.9025C258.366 89.2562 258.118 89.5586 257.8 89.7714C257.481 89.9842 257.107 90.0977 256.724 90.0977C256.21 90.0977 255.718 89.8937 255.355 89.5306C254.992 89.1675 254.788 88.6749 254.788 88.1614Z" fill="white" stroke="#111416" stroke-width="0.915" stroke-linecap="round" stroke-linejoin="round"/>
<path d="M271.99 86.5272H270.571V89.7959H271.99V86.5272Z" stroke="#111416" stroke-width="0.915" stroke-linecap="round" stroke-linejoin="round"/>
<path d="M268.499 85.996C268.586 85.996 268.671 86.0217 268.743 86.07C268.815 86.1182 268.872 86.1868 268.905 86.267C268.938 86.3473 268.947 86.4356 268.93 86.5208C268.913 86.6059 268.871 86.6842 268.81 86.7456C268.748 86.807 268.67 86.8488 268.585 86.8658C268.5 86.8827 268.411 86.874 268.331 86.8408C268.251 86.8075 268.182 86.7512 268.134 86.679C268.086 86.6068 268.06 86.5219 268.06 86.4351C268.06 86.3774 268.071 86.3202 268.093 86.2669C268.115 86.2135 268.148 86.1651 268.188 86.1243C268.229 86.0835 268.278 86.0511 268.331 86.0291C268.384 86.0071 268.441 85.9958 268.499 85.996ZM268.499 87.7225C268.586 87.7225 268.671 87.7482 268.743 87.7965C268.815 87.8447 268.872 87.9133 268.905 87.9935C268.938 88.0738 268.947 88.1621 268.93 88.2473C268.913 88.3324 268.871 88.4107 268.81 88.4721C268.748 88.5335 268.67 88.5753 268.585 88.5923C268.5 88.6092 268.411 88.6005 268.331 88.5673C268.251 88.534 268.182 88.4777 268.134 88.4055C268.086 88.3333 268.06 88.2484 268.06 88.1616C268.06 88.1039 268.071 88.0467 268.093 87.9934C268.115 87.94 268.148 87.8916 268.188 87.8508C268.229 87.81 268.278 87.7777 268.331 87.7556C268.384 87.7336 268.441 87.7223 268.499 87.7225ZM268.499 89.449C268.586 89.449 268.671 89.4747 268.743 89.523C268.815 89.5712 268.872 89.6398 268.905 89.72C268.938 89.8003 268.947 89.8886 268.93 89.9737C268.913 90.0589 268.871 90.1372 268.81 90.1986C268.748 90.26 268.67 90.3018 268.585 90.3187C268.5 90.3357 268.411 90.327 268.331 90.2937C268.251 90.2605 268.182 90.2042 268.134 90.132C268.086 90.0598 268.06 89.9749 268.06 89.8881C268.06 89.8304 268.071 89.7732 268.093 89.7199C268.115 89.6665 268.148 89.6181 268.188 89.5773C268.229 89.5365 268.278 89.5042 268.331 89.4821C268.384 89.4601 268.441 89.4489 268.499 89.449V89.449Z" fill="#111416"/>
<path d="M249.326 91.4185H270.887C271.273 91.4185 271.643 91.5717 271.916 91.8446C272.189 92.1175 272.342 92.4876 272.342 92.8735C272.342 93.2594 272.189 93.6295 271.916 93.9023C271.643 94.1752 271.273 94.3285 270.887 94.3285H249.326V91.4185Z" fill="white"/>
<path d="M251.443 92.8738H252.443" stroke="#111416" stroke-width="0.915" stroke-linecap="round" stroke-linejoin="round"/>
<path d="M254.161 92.8738H258.227" stroke="#111416" stroke-width="0.915" stroke-linecap="round" stroke-linejoin="round"/>
<path d="M248.653 94.3285H270.888C271.274 94.3285 271.644 94.1752 271.917 93.9023C272.19 93.6295 272.343 93.2594 272.343 92.8735C272.343 92.4876 272.19 92.1175 271.917 91.8446C271.644 91.5718 271.274 91.4185 270.888 91.4185H248.653" stroke="#111416" stroke-width="0.915" stroke-linecap="round" stroke-linejoin="round"/>
<path d="M248.653 94.3285H270.888C271.274 94.3285 271.644 94.1752 271.917 93.9023C272.19 93.6295 272.343 93.2594 272.343 92.8735C272.343 92.4876 272.19 92.1175 271.917 91.8446C271.644 91.5718 271.274 91.4185 270.888 91.4185H248.653" stroke="#111416" stroke-width="0.915" stroke-linecap="round" stroke-linejoin="round"/>
<path d="M249.326 91.4185V94.3285" stroke="#111416" stroke-width="0.915" stroke-linecap="round" stroke-linejoin="round"/>
<path d="M56.8845 116.509C63.2845 115.65 67.7765 109.766 66.9177 103.366C66.0589 96.9658 60.1744 92.4738 53.7743 93.3326C47.3743 94.1915 42.8823 100.076 43.7411 106.476C44.5999 112.876 50.4844 117.368 56.8845 116.509Z" stroke="#111416" stroke-width="0.915" stroke-linecap="round" stroke-linejoin="round"/>
<path d="M55.3291 93.2284V94.4017" stroke="#111416" stroke-width="0.915" stroke-linecap="round"/>
<path d="M55.3291 116.612V115.439" stroke="#111416" stroke-width="0.915" stroke-linecap="round"/>
<path d="M49.4839 94.795L50.0704 95.811" stroke="#111416" stroke-width="0.915" stroke-linecap="round"/>
<path d="M61.1764 115.046L60.5898 114.03" stroke="#111416" stroke-width="0.915" stroke-linecap="round"/>
<path d="M45.2031 99.0745L46.2191 99.661" stroke="#111416" stroke-width="0.915" stroke-linecap="round"/>
<path d="M65.4556 110.767L64.4399 110.18" stroke="#111416" stroke-width="0.915" stroke-linecap="round"/>
<path d="M43.6353 104.921H44.8086" stroke="#111416" stroke-width="0.915" stroke-linecap="round"/>
<path d="M67.0221 104.921L65.8491 104.921" stroke="#111416" stroke-width="0.915" stroke-linecap="round"/>
<path d="M45.2031 110.767L46.2191 110.18" stroke="#111416" stroke-width="0.915" stroke-linecap="round"/>
<path d="M65.4559 99.0745L64.4399 99.661" stroke="#111416" stroke-width="0.915" stroke-linecap="round"/>
<path d="M49.4839 115.046L50.0707 114.03" stroke="#111416" stroke-width="0.915" stroke-linecap="round"/>
<path d="M61.1749 94.795L60.5884 95.811" stroke="#111416" stroke-width="0.915" stroke-linecap="round"/>
<path d="M54.2119 104.921C54.2121 104.7 54.2778 104.484 54.4007 104.3C54.5236 104.116 54.6982 103.973 54.9025 103.889C55.1067 103.804 55.3314 103.782 55.5481 103.826C55.7649 103.869 55.9639 103.975 56.1201 104.132C56.2763 104.288 56.3827 104.487 56.4257 104.704C56.4688 104.921 56.4466 105.145 56.362 105.349C56.2773 105.554 56.1341 105.728 55.9503 105.851C55.7666 105.974 55.5505 106.039 55.3295 106.039C55.1827 106.039 55.0373 106.01 54.9017 105.954C54.766 105.898 54.6428 105.815 54.539 105.711C54.4353 105.608 54.3529 105.484 54.2968 105.349C54.2407 105.213 54.2118 105.067 54.2119 104.921V104.921Z" stroke="#111416" stroke-width="0.915"/>
<path d="M55.3291 103.802V96.8966" stroke="#111416" stroke-width="0.915" stroke-linecap="round"/>
<path d="M56.2964 105.479L61.9904 108.767" stroke="#111416" stroke-width="0.915" stroke-linecap="round"/>
<g style="mix-blend-mode:multiply">
<g style="mix-blend-mode:multiply">
<path d="M55.3286 119.579V120.224" stroke="#A6BDB9" stroke-width="0.915" stroke-linecap="round" stroke-linejoin="round"/>
</g>
<g style="mix-blend-mode:multiply">
<path d="M47.9977 117.615L47.6753 118.174" stroke="#A6BDB9" stroke-width="0.915" stroke-linecap="round" stroke-linejoin="round"/>
</g>
<g style="mix-blend-mode:multiply">
<path d="M42.6329 112.25L42.0747 112.572" stroke="#A6BDB9" stroke-width="0.915" stroke-linecap="round" stroke-linejoin="round"/>
</g>
<g style="mix-blend-mode:multiply">
<path d="M40.6694 104.921H40.0249" stroke="#A6BDB9" stroke-width="0.915" stroke-linecap="round" stroke-linejoin="round"/>
</g>
<g style="mix-blend-mode:multiply">
<path d="M42.6332 97.5909L42.0747 97.2686" stroke="#A6BDB9" stroke-width="0.915" stroke-linecap="round" stroke-linejoin="round"/>
</g>
<g style="mix-blend-mode:multiply">
<path d="M47.9996 92.2256L47.6772 91.6671" stroke="#A6BDB9" stroke-width="0.915" stroke-linecap="round" stroke-linejoin="round"/>
</g>
<g style="mix-blend-mode:multiply">
<path d="M55.3286 90.2621V89.6173" stroke="#A6BDB9" stroke-width="0.915" stroke-linecap="round" stroke-linejoin="round"/>
</g>
<g style="mix-blend-mode:multiply">
<path d="M62.6577 92.2263L62.9798 91.6678" stroke="#A6BDB9" stroke-width="0.915" stroke-linecap="round" stroke-linejoin="round"/>
</g>
<g style="mix-blend-mode:multiply">
<path d="M68.0229 97.5925L68.5814 97.2698" stroke="#A6BDB9" stroke-width="0.915" stroke-linecap="round" stroke-linejoin="round"/>
</g>
<g style="mix-blend-mode:multiply">
<path d="M69.9863 104.922H70.6311" stroke="#A6BDB9" stroke-width="0.915" stroke-linecap="round" stroke-linejoin="round"/>
</g>
</g>
<path d="M146.074 106.476H146.454C147.216 106.479 147.947 106.783 148.486 107.321C149.025 107.86 149.328 108.591 149.331 109.353V138H103.297V109.353C103.299 108.591 103.603 107.86 104.142 107.322C104.681 106.783 105.411 106.479 106.174 106.476H106.553M96.5815 138C96.5816 139.304 97.0997 140.555 98.0219 141.477C98.9441 142.4 100.195 142.918 101.499 142.918H151.127C152.431 142.918 153.682 142.4 154.604 141.477C155.526 140.555 156.044 139.304 156.044 138H96.5815Z" stroke="#111416" stroke-width="0.915" stroke-linecap="round" stroke-linejoin="round"/>
<path d="M146.074 109.352H149.33" stroke="#111416" stroke-width="0.915" stroke-linecap="round" stroke-linejoin="round"/>
<path d="M103.297 109.352H106.553" stroke="#111416" stroke-width="0.915" stroke-linecap="round" stroke-linejoin="round"/>
<path d="M123.792 103.955H106.554V132.988H123.792C124.124 132.988 124.451 133.053 124.757 133.18C125.063 133.307 125.341 133.492 125.576 133.727C125.81 133.961 125.996 134.239 126.122 134.545C126.249 134.851 126.314 135.179 126.314 135.51V106.476C126.314 106.145 126.249 105.817 126.122 105.511C125.996 105.205 125.81 104.927 125.576 104.693C125.341 104.459 125.063 104.273 124.757 104.147C124.451 104.02 124.124 103.955 123.792 103.955V103.955Z" stroke="#111416" stroke-width="0.915" stroke-linecap="round" stroke-linejoin="round"/>
<path d="M128.835 103.955H146.074V132.988H128.835C128.504 132.988 128.176 133.053 127.87 133.18C127.564 133.307 127.286 133.492 127.052 133.727C126.818 133.961 126.632 134.239 126.505 134.545C126.379 134.851 126.313 135.179 126.313 135.51V106.476C126.313 106.145 126.379 105.817 126.505 105.511C126.632 105.206 126.818 104.928 127.052 104.693C127.286 104.459 127.564 104.273 127.87 104.147C128.176 104.02 128.504 103.955 128.835 103.955Z" stroke="#111416" stroke-width="0.915" stroke-linecap="round" stroke-linejoin="round"/>
<path d="M129.34 107.774H143.544" stroke="#111416" stroke-width="0.915" stroke-linecap="round" stroke-linejoin="round"/>
<path d="M123.289 107.774H112.379" stroke="#111416" stroke-width="0.915" stroke-linecap="round" stroke-linejoin="round"/>
<path d="M129.34 111.18H143.544" stroke="#111416" stroke-width="0.915" stroke-linecap="round" stroke-linejoin="round"/>
<path d="M123.288 111.18H109.084" stroke="#111416" stroke-width="0.915" stroke-linecap="round" stroke-linejoin="round"/>
<path d="M129.34 114.587H139.469" stroke="#111416" stroke-width="0.915" stroke-linecap="round" stroke-linejoin="round"/>
<path d="M123.288 114.587H109.084" stroke="#111416" stroke-width="0.915" stroke-linecap="round" stroke-linejoin="round"/>
<path d="M123.288 117.993H109.084" stroke="#111416" stroke-width="0.915" stroke-linecap="round" stroke-linejoin="round"/>
<path d="M123.288 121.4H109.084" stroke="#111416" stroke-width="0.915" stroke-linecap="round" stroke-linejoin="round"/>
<path d="M123.288 124.806H109.084" stroke="#111416" stroke-width="0.915" stroke-linecap="round" stroke-linejoin="round"/>
<g style="mix-blend-mode:multiply">
<path d="M186.012 77.0576C186.012 75.3969 186.505 73.7735 187.427 72.3927C188.35 71.0119 189.661 69.9357 191.196 69.3002C192.73 68.6647 194.418 68.4984 196.047 68.8223C197.676 69.1463 199.172 69.946 200.346 71.1203C201.52 72.2946 202.32 73.7907 202.644 75.4194C202.968 77.0482 202.802 78.7365 202.166 80.2708C201.531 81.8051 200.455 83.1164 199.074 84.0391C197.693 84.9617 196.07 85.4542 194.409 85.4542C192.182 85.4542 190.046 84.5696 188.472 82.9949C186.897 81.4203 186.012 79.2846 186.012 77.0576V77.0576Z" fill="#A6BDB9"/>
</g>
<path d="M194.409 92.1687C199.53 90.6302 202.805 84.0878 202.805 77.0579C202.805 72.032 201.131 67.2541 198.305 64.3766M194.409 92.1687C189.289 90.6295 186.014 84.0874 186.014 77.057C186.014 72.0325 187.688 67.2555 190.512 64.3779L194.409 92.1687Z" stroke="#111416" stroke-width="0.915" stroke-linecap="round" stroke-linejoin="round"/>
<path d="M194.408 65.3009L194.408 92.169" stroke="#111416" stroke-width="0.915" stroke-linecap="round" stroke-linejoin="round"/>
<path d="M179.297 77.0574L209.521 77.0586" stroke="#111416" stroke-width="0.915" stroke-linecap="round" stroke-linejoin="round"/>
<path d="M199.432 62.8004C202.598 63.9147 205.303 66.0508 207.121 68.872C208.939 71.6933 209.766 75.0393 209.472 78.3825C209.178 81.7258 207.78 84.8762 205.498 87.3372C203.216 89.7982 200.18 91.4298 196.869 91.9749C193.557 92.5199 190.158 91.9474 187.208 90.3476C184.258 88.7478 181.924 86.2116 180.574 83.1388C179.224 80.0661 178.935 76.6315 179.753 73.3765C180.571 70.1215 182.448 67.2311 185.09 65.161M204.387 65.7132C203.215 67.2469 201.705 68.4898 199.974 69.3452C198.243 70.2006 196.339 70.6455 194.408 70.6453C192.478 70.6452 190.574 70.2 188.843 69.3443C187.113 68.4886 185.603 67.2455 184.431 65.7116L204.387 65.7132ZM204.388 88.4032C203.216 86.8692 201.706 85.6261 199.975 84.7704C198.245 83.9148 196.34 83.4697 194.41 83.4697C192.479 83.4697 190.575 83.9148 188.844 84.7704C187.113 85.6261 185.603 86.8692 184.431 88.4032H204.388ZM186.226 64.3512C187.215 63.7127 188.275 63.1924 189.385 62.801L186.226 64.3512Z" stroke="#111416" stroke-width="0.915" stroke-linecap="round" stroke-linejoin="round"/>
<path d="M212.27 77.4975C212.357 77.4974 212.441 77.4716 212.513 77.4234C212.586 77.3751 212.642 77.3066 212.675 77.2264C212.708 77.1463 212.717 77.058 212.7 76.9729C212.683 76.8878 212.641 76.8097 212.58 76.7483C212.518 76.6869 212.44 76.6451 212.355 76.6282C212.27 76.6113 212.182 76.6199 212.102 76.6531C212.022 76.6863 211.953 76.7425 211.905 76.8146C211.856 76.8867 211.831 76.9716 211.831 77.0583C211.831 77.116 211.842 77.1732 211.864 77.2265C211.886 77.2799 211.918 77.3284 211.959 77.3692C212 77.41 212.048 77.4423 212.102 77.4643C212.155 77.4863 212.212 77.4976 212.27 77.4975ZM176.743 79.7266C176.658 79.7417 176.579 79.7818 176.516 79.8418C176.453 79.9019 176.41 79.9791 176.391 80.0639C176.372 80.1486 176.379 80.2369 176.411 80.3178C176.442 80.3987 176.497 80.4684 176.568 80.5182C176.639 80.5679 176.723 80.5955 176.81 80.5974C176.897 80.5993 176.982 80.5755 177.055 80.5289C177.129 80.4823 177.186 80.415 177.221 80.3356C177.256 80.2562 177.267 80.1682 177.252 80.0827C177.242 80.0259 177.221 79.9715 177.19 79.9228C177.159 79.8741 177.119 79.832 177.072 79.7989C177.024 79.7658 176.971 79.7424 176.915 79.7299C176.858 79.7175 176.8 79.7164 176.743 79.7266V79.7266ZM177.475 82.7537C177.393 82.7834 177.323 82.8366 177.271 82.9066C177.22 82.9766 177.191 83.0602 177.187 83.1469C177.183 83.2336 177.205 83.3194 177.25 83.3936C177.295 83.4678 177.361 83.527 177.44 83.5636C177.518 83.6003 177.606 83.6128 177.692 83.5997C177.778 83.5865 177.858 83.5481 177.922 83.4895C177.986 83.431 178.031 83.3547 178.051 83.2704C178.072 83.1862 178.067 83.0976 178.038 83.0161C178.018 82.9618 177.988 82.912 177.949 82.8694C177.91 82.8268 177.863 82.7923 177.811 82.7679C177.759 82.7435 177.702 82.7297 177.644 82.7272C177.587 82.7248 177.529 82.7338 177.475 82.7537ZM178.721 85.6077C178.646 85.6512 178.586 85.7159 178.547 85.7937C178.509 85.8715 178.495 85.959 178.506 86.045C178.517 86.131 178.554 86.2117 178.611 86.2769C178.668 86.3421 178.744 86.3889 178.827 86.4114C178.911 86.4338 179 86.431 179.082 86.4031C179.164 86.3752 179.236 86.3236 179.289 86.2548C179.342 86.186 179.373 86.1031 179.379 86.0166C179.384 85.93 179.364 85.8437 179.321 85.7685C179.292 85.7184 179.254 85.6746 179.208 85.6394C179.163 85.6042 179.11 85.5783 179.055 85.5634C178.999 85.5485 178.941 85.5447 178.883 85.5523C178.826 85.5599 178.771 85.5787 178.721 85.6077V85.6077ZM180.444 88.2021C180.378 88.2579 180.329 88.3322 180.305 88.4155C180.281 88.4988 180.282 88.5874 180.308 88.6701C180.334 88.7528 180.384 88.826 180.452 88.8802C180.52 88.9345 180.602 88.9675 180.688 88.9751C180.775 88.9826 180.861 88.9644 180.937 88.9227C181.014 88.881 181.075 88.8176 181.116 88.7407C181.156 88.6638 181.172 88.5767 181.163 88.4904C181.153 88.4042 181.119 88.3227 181.063 88.2562C181.026 88.2118 180.98 88.1752 180.929 88.1485C180.878 88.1218 180.822 88.1054 180.765 88.1004C180.707 88.0953 180.649 88.1018 180.594 88.1192C180.539 88.1367 180.488 88.1648 180.444 88.2021V88.2021ZM182.591 90.4578C182.536 90.5243 182.501 90.6058 182.492 90.6921C182.482 90.7783 182.499 90.8654 182.539 90.9423C182.579 91.0193 182.641 91.0826 182.717 91.1243C182.793 91.166 182.88 91.1842 182.966 91.1767C183.052 91.1691 183.135 91.1361 183.202 91.0818C183.27 91.0275 183.32 90.9543 183.346 90.8716C183.372 90.7888 183.373 90.7002 183.349 90.6169C183.325 90.5336 183.276 90.4594 183.21 90.4036C183.166 90.3663 183.115 90.3381 183.06 90.3207C183.005 90.3032 182.947 90.2969 182.889 90.3019C182.832 90.3069 182.776 90.3233 182.725 90.35C182.674 90.3768 182.628 90.4134 182.591 90.4578V90.4578ZM185.098 92.3063C185.054 92.3815 185.034 92.4679 185.04 92.5544C185.046 92.641 185.077 92.724 185.13 92.7928C185.183 92.8616 185.255 92.9132 185.337 92.941C185.419 92.9689 185.508 92.9718 185.592 92.9493C185.675 92.9268 185.751 92.88 185.808 92.8148C185.865 92.7496 185.902 92.6688 185.913 92.5828C185.924 92.4968 185.91 92.4093 185.872 92.3315C185.833 92.2536 185.773 92.1889 185.698 92.1454C185.648 92.1164 185.593 92.0975 185.535 92.0899C185.478 92.0822 185.42 92.086 185.364 92.101C185.308 92.1159 185.256 92.1418 185.21 92.177C185.165 92.2123 185.126 92.2562 185.098 92.3063V92.3063ZM187.887 93.6916C187.857 93.7732 187.852 93.8617 187.873 93.946C187.894 94.0302 187.939 94.1065 188.003 94.1651C188.067 94.2237 188.147 94.2619 188.233 94.2751C188.319 94.2883 188.406 94.2757 188.485 94.239C188.564 94.2023 188.63 94.1432 188.675 94.069C188.72 93.9948 188.742 93.9089 188.738 93.8223C188.734 93.7356 188.705 93.6519 188.654 93.5819C188.602 93.5119 188.531 93.4586 188.45 93.4289C188.396 93.409 188.338 93.4 188.28 93.4024C188.223 93.4049 188.166 93.4187 188.114 93.4431C188.061 93.4675 188.014 93.5021 187.975 93.5447C187.937 93.5873 187.906 93.6373 187.887 93.6916ZM190.874 94.5714C190.859 94.6569 190.87 94.7449 190.905 94.8244C190.94 94.9038 190.998 94.971 191.071 95.0176C191.144 95.0642 191.23 95.0881 191.316 95.0862C191.403 95.0843 191.487 95.0567 191.558 95.0069C191.63 94.9571 191.684 94.8873 191.716 94.8064C191.747 94.7255 191.754 94.6371 191.735 94.5524C191.717 94.4677 191.673 94.3904 191.61 94.3303C191.548 94.2703 191.469 94.2301 191.383 94.215C191.326 94.2048 191.268 94.206 191.212 94.2184C191.155 94.2308 191.102 94.2543 191.055 94.2874C191.007 94.3205 190.967 94.3627 190.936 94.4114C190.905 94.4602 190.884 94.5145 190.874 94.5714V94.5714ZM193.969 94.9191C193.969 95.0059 193.995 95.0908 194.043 95.163C194.091 95.2351 194.16 95.2914 194.24 95.3246C194.32 95.3578 194.409 95.3665 194.494 95.3495C194.579 95.3326 194.657 95.2908 194.719 95.2294C194.78 95.168 194.822 95.0897 194.839 95.0046C194.856 94.9194 194.847 94.8312 194.814 94.751C194.781 94.6707 194.724 94.6021 194.652 94.5539C194.58 94.5056 194.495 94.4798 194.408 94.4797C194.351 94.4796 194.294 94.4909 194.24 94.5129C194.187 94.5349 194.138 94.5673 194.097 94.6081C194.057 94.6489 194.024 94.6974 194.002 94.7508C193.98 94.8042 193.969 94.8614 193.969 94.9191ZM193.969 97.4841C193.969 97.5709 193.995 97.6557 194.043 97.7279C194.091 97.8001 194.16 97.8563 194.24 97.8895C194.32 97.9227 194.409 97.9314 194.494 97.9144C194.579 97.8975 194.657 97.8557 194.719 97.7943C194.78 97.7329 194.822 97.6547 194.839 97.5695C194.856 97.4844 194.847 97.3961 194.814 97.3159C194.781 97.2356 194.724 97.1671 194.652 97.1188C194.58 97.0705 194.495 97.0447 194.408 97.0447C194.351 97.0445 194.294 97.0558 194.24 97.0778C194.187 97.0999 194.138 97.1322 194.097 97.1731C194.057 97.2139 194.024 97.2624 194.002 97.3157C193.98 97.3691 193.969 97.4263 193.969 97.4841V97.4841ZM193.969 100.049C193.969 100.136 193.995 100.221 194.043 100.293C194.091 100.365 194.16 100.421 194.24 100.454C194.32 100.488 194.409 100.496 194.494 100.479C194.579 100.462 194.657 100.421 194.719 100.359C194.78 100.298 194.822 100.22 194.839 100.134C194.856 100.049 194.847 99.9611 194.814 99.8808C194.781 99.8006 194.724 99.732 194.652 99.6837C194.58 99.6355 194.495 99.6097 194.408 99.6096C194.351 99.6095 194.294 99.6208 194.24 99.6428C194.187 99.6648 194.138 99.6972 194.097 99.738C194.057 99.7788 194.024 99.8273 194.002 99.8807C193.98 99.9341 193.969 99.9912 193.969 100.049ZM193.969 102.614C193.969 102.701 193.995 102.786 194.043 102.858C194.091 102.93 194.16 102.986 194.24 103.019C194.32 103.053 194.409 103.061 194.494 103.044C194.579 103.027 194.657 102.986 194.719 102.924C194.78 102.863 194.822 102.785 194.839 102.699C194.856 102.614 194.847 102.526 194.814 102.446C194.781 102.366 194.724 102.297 194.652 102.249C194.58 102.2 194.495 102.175 194.408 102.175C194.351 102.174 194.294 102.186 194.24 102.208C194.187 102.23 194.138 102.262 194.097 102.303C194.057 102.344 194.024 102.392 194.002 102.446C193.98 102.499 193.969 102.556 193.969 102.614ZM193.969 105.179C193.969 105.266 193.995 105.351 194.043 105.423C194.091 105.495 194.16 105.551 194.24 105.584C194.32 105.618 194.409 105.626 194.494 105.609C194.579 105.592 194.657 105.55 194.719 105.489C194.78 105.428 194.822 105.349 194.839 105.264C194.856 105.179 194.847 105.091 194.814 105.011C194.781 104.93 194.724 104.862 194.652 104.814C194.58 104.765 194.495 104.74 194.408 104.739C194.351 104.739 194.294 104.751 194.24 104.773C194.187 104.795 194.138 104.827 194.097 104.868C194.057 104.909 194.024 104.957 194.002 105.011C193.98 105.064 193.969 105.121 193.969 105.179ZM193.969 107.744C193.969 107.831 193.995 107.915 194.043 107.988C194.091 108.06 194.16 108.116 194.24 108.149C194.32 108.182 194.409 108.191 194.494 108.174C194.579 108.157 194.657 108.115 194.719 108.054C194.78 107.993 194.822 107.914 194.839 107.829C194.856 107.744 194.847 107.656 194.814 107.576C194.781 107.495 194.724 107.427 194.652 107.379C194.58 107.33 194.495 107.304 194.408 107.304C194.351 107.304 194.294 107.316 194.24 107.338C194.187 107.36 194.138 107.392 194.097 107.433C194.057 107.474 194.024 107.522 194.002 107.575C193.98 107.629 193.969 107.686 193.969 107.744ZM193.969 110.309C193.969 110.396 193.995 110.48 194.043 110.553C194.091 110.625 194.16 110.681 194.24 110.714C194.32 110.747 194.409 110.756 194.494 110.739C194.579 110.722 194.657 110.68 194.719 110.619C194.78 110.558 194.822 110.479 194.839 110.394C194.856 110.309 194.847 110.221 194.814 110.141C194.781 110.06 194.724 109.992 194.652 109.943C194.58 109.895 194.495 109.869 194.408 109.869C194.351 109.869 194.294 109.88 194.24 109.902C194.187 109.925 194.138 109.957 194.097 109.998C194.057 110.039 194.024 110.087 194.002 110.14C193.98 110.194 193.969 110.251 193.969 110.309ZM193.969 112.874C193.969 112.96 193.995 113.045 194.043 113.117C194.091 113.19 194.16 113.246 194.24 113.279C194.32 113.312 194.409 113.321 194.494 113.304C194.579 113.287 194.657 113.245 194.719 113.184C194.78 113.122 194.822 113.044 194.839 112.959C194.856 112.874 194.847 112.786 194.814 112.705C194.781 112.625 194.724 112.557 194.652 112.508C194.58 112.46 194.495 112.434 194.408 112.434C194.351 112.434 194.294 112.445 194.24 112.467C194.187 112.489 194.138 112.522 194.097 112.563C194.057 112.603 194.024 112.652 194.002 112.705C193.98 112.759 193.969 112.816 193.969 112.874V112.874ZM193.969 115.438C193.969 115.525 193.995 115.61 194.043 115.682C194.091 115.755 194.16 115.811 194.24 115.844C194.32 115.877 194.409 115.886 194.494 115.869C194.579 115.852 194.657 115.81 194.719 115.749C194.78 115.688 194.822 115.609 194.839 115.524C194.856 115.439 194.847 115.351 194.814 115.271C194.781 115.19 194.724 115.122 194.652 115.073C194.58 115.025 194.495 114.999 194.408 114.999C194.351 114.999 194.294 115.01 194.24 115.033C194.187 115.055 194.138 115.087 194.098 115.128C194.057 115.168 194.024 115.217 194.002 115.27C193.98 115.324 193.969 115.381 193.969 115.438V115.438ZM193.969 118.003C193.969 118.09 193.995 118.175 194.043 118.247C194.091 118.32 194.16 118.376 194.24 118.409C194.32 118.442 194.409 118.451 194.494 118.434C194.579 118.417 194.657 118.375 194.719 118.314C194.78 118.253 194.822 118.175 194.839 118.089C194.856 118.004 194.847 117.916 194.814 117.836C194.781 117.755 194.724 117.687 194.652 117.639C194.58 117.59 194.495 117.564 194.408 117.564C194.351 117.564 194.294 117.576 194.24 117.598C194.187 117.62 194.138 117.652 194.098 117.693C194.057 117.734 194.024 117.782 194.002 117.835C193.98 117.889 193.969 117.946 193.969 118.003V118.003ZM193.969 120.569C193.969 120.655 193.995 120.74 194.043 120.812C194.091 120.885 194.16 120.941 194.24 120.974C194.32 121.007 194.409 121.016 194.494 120.999C194.579 120.982 194.657 120.941 194.719 120.879C194.78 120.818 194.822 120.74 194.839 120.654C194.856 120.569 194.847 120.481 194.814 120.401C194.781 120.32 194.724 120.252 194.652 120.204C194.58 120.155 194.495 120.13 194.408 120.129C194.351 120.129 194.294 120.141 194.24 120.163C194.187 120.185 194.138 120.217 194.098 120.258C194.057 120.299 194.024 120.347 194.002 120.4C193.98 120.454 193.969 120.511 193.969 120.569ZM193.969 123.134C193.969 123.22 193.995 123.305 194.043 123.378C194.091 123.45 194.16 123.506 194.24 123.539C194.32 123.573 194.409 123.581 194.494 123.564C194.579 123.547 194.657 123.506 194.719 123.444C194.78 123.383 194.822 123.305 194.839 123.219C194.856 123.134 194.847 123.046 194.814 122.966C194.781 122.886 194.724 122.817 194.652 122.769C194.58 122.72 194.495 122.695 194.408 122.695C194.351 122.694 194.294 122.706 194.24 122.728C194.187 122.75 194.138 122.782 194.098 122.823C194.057 122.864 194.024 122.912 194.002 122.965C193.98 123.019 193.969 123.076 193.969 123.134V123.134ZM193.969 125.699C193.969 125.786 193.995 125.87 194.043 125.943C194.091 126.015 194.16 126.071 194.24 126.104C194.32 126.138 194.409 126.146 194.494 126.129C194.579 126.112 194.657 126.071 194.719 126.009C194.78 125.948 194.822 125.87 194.839 125.785C194.856 125.699 194.847 125.611 194.814 125.531C194.781 125.451 194.724 125.382 194.652 125.334C194.58 125.285 194.495 125.26 194.408 125.26C194.351 125.259 194.294 125.271 194.24 125.293C194.187 125.315 194.138 125.347 194.098 125.388C194.057 125.429 194.024 125.477 194.002 125.53C193.98 125.584 193.969 125.641 193.969 125.699V125.699ZM193.969 128.264C193.969 128.351 193.995 128.435 194.043 128.508C194.091 128.58 194.16 128.636 194.24 128.669C194.32 128.703 194.409 128.711 194.494 128.694C194.579 128.678 194.657 128.636 194.719 128.574C194.78 128.513 194.822 128.435 194.839 128.35C194.856 128.264 194.847 128.176 194.814 128.096C194.781 128.016 194.724 127.947 194.652 127.899C194.58 127.85 194.495 127.825 194.408 127.825C194.351 127.825 194.294 127.836 194.24 127.858C194.187 127.88 194.138 127.912 194.098 127.953C194.057 127.994 194.024 128.042 194.002 128.096C193.98 128.149 193.969 128.206 193.969 128.264V128.264ZM193.969 130.829C193.969 130.916 193.995 131.001 194.043 131.073C194.091 131.145 194.16 131.201 194.24 131.234C194.32 131.268 194.409 131.276 194.494 131.26C194.579 131.243 194.657 131.201 194.719 131.139C194.78 131.078 194.822 131 194.839 130.915C194.856 130.829 194.847 130.741 194.814 130.661C194.781 130.581 194.724 130.512 194.652 130.464C194.58 130.416 194.495 130.39 194.408 130.39C194.351 130.39 194.294 130.401 194.24 130.423C194.187 130.445 194.138 130.477 194.098 130.518C194.057 130.559 194.024 130.607 194.002 130.661C193.98 130.714 193.969 130.771 193.969 130.829ZM193.969 133.394C193.969 133.481 193.995 133.566 194.043 133.638C194.091 133.71 194.16 133.766 194.24 133.8C194.32 133.833 194.409 133.841 194.494 133.825C194.579 133.808 194.657 133.766 194.719 133.704C194.78 133.643 194.822 133.565 194.839 133.48C194.856 133.395 194.847 133.306 194.814 133.226C194.781 133.146 194.724 133.077 194.652 133.029C194.58 132.981 194.495 132.955 194.408 132.955C194.351 132.955 194.294 132.966 194.24 132.988C194.187 133.01 194.138 133.042 194.098 133.083C194.057 133.124 194.024 133.172 194.002 133.226C193.98 133.279 193.969 133.336 193.969 133.394ZM193.969 135.959C193.969 136.046 193.995 136.131 194.043 136.203C194.091 136.275 194.16 136.331 194.24 136.365C194.32 136.398 194.409 136.407 194.494 136.39C194.579 136.373 194.657 136.331 194.719 136.27C194.78 136.208 194.822 136.13 194.839 136.045C194.856 135.96 194.847 135.871 194.814 135.791C194.781 135.711 194.724 135.642 194.652 135.594C194.58 135.546 194.495 135.52 194.408 135.52C194.351 135.52 194.294 135.531 194.24 135.553C194.187 135.575 194.138 135.607 194.098 135.648C194.057 135.689 194.024 135.737 194.002 135.791C193.98 135.844 193.969 135.901 193.969 135.959V135.959ZM193.969 138.524C193.969 138.611 193.995 138.696 194.043 138.768C194.091 138.84 194.16 138.896 194.24 138.93C194.32 138.963 194.409 138.972 194.494 138.955C194.579 138.938 194.657 138.896 194.719 138.835C194.78 138.773 194.822 138.695 194.839 138.61C194.856 138.525 194.847 138.436 194.814 138.356C194.781 138.276 194.724 138.207 194.652 138.159C194.58 138.111 194.495 138.085 194.408 138.085C194.351 138.085 194.294 138.096 194.24 138.118C194.187 138.14 194.138 138.172 194.098 138.213C194.057 138.254 194.024 138.303 194.002 138.356C193.98 138.409 193.969 138.466 193.969 138.524V138.524ZM193.969 141.089C193.969 141.176 193.995 141.261 194.043 141.333C194.091 141.405 194.16 141.461 194.24 141.495C194.32 141.528 194.409 141.537 194.494 141.52C194.579 141.503 194.657 141.461 194.719 141.4C194.78 141.338 194.822 141.26 194.839 141.175C194.856 141.09 194.847 141.001 194.814 140.921C194.781 140.841 194.724 140.772 194.652 140.724C194.58 140.676 194.495 140.65 194.408 140.65C194.351 140.65 194.294 140.661 194.24 140.683C194.187 140.705 194.138 140.738 194.098 140.778C194.057 140.819 194.024 140.868 194.002 140.921C193.98 140.974 193.969 141.031 193.969 141.089V141.089ZM193.969 143.654C193.969 143.741 193.995 143.826 194.043 143.898C194.091 143.97 194.16 144.027 194.24 144.06C194.32 144.093 194.409 144.102 194.494 144.085C194.579 144.068 194.657 144.026 194.719 143.965C194.78 143.903 194.822 143.825 194.839 143.74C194.856 143.655 194.847 143.567 194.814 143.486C194.781 143.406 194.724 143.337 194.652 143.289C194.58 143.241 194.495 143.215 194.408 143.215C194.351 143.215 194.294 143.226 194.24 143.248C194.187 143.27 194.138 143.303 194.098 143.343C194.057 143.384 194.024 143.433 194.002 143.486C193.98 143.539 193.969 143.596 193.969 143.654ZM197.077 94.7241C197.092 94.8096 197.133 94.8887 197.193 94.9514C197.253 95.014 197.33 95.0575 197.415 95.0763C197.5 95.095 197.588 95.0882 197.669 95.0567C197.75 95.0253 197.82 94.9705 197.869 94.8994C197.919 94.8283 197.947 94.744 197.949 94.6572C197.951 94.5704 197.927 94.485 197.88 94.4117C197.833 94.3385 197.766 94.2808 197.687 94.2458C197.607 94.2108 197.519 94.2001 197.434 94.2151C197.377 94.225 197.322 94.246 197.274 94.277C197.225 94.3079 197.183 94.3482 197.15 94.3955C197.117 94.4428 197.093 94.4962 197.081 94.5526C197.068 94.609 197.067 94.6673 197.077 94.7241ZM200.104 93.9924C200.134 94.0739 200.187 94.1448 200.257 94.1961C200.328 94.2474 200.411 94.2768 200.498 94.2806C200.585 94.2843 200.671 94.2623 200.745 94.2172C200.819 94.1721 200.878 94.1061 200.915 94.0274C200.952 93.9487 200.964 93.8609 200.951 93.7751C200.938 93.6893 200.899 93.6093 200.841 93.5453C200.782 93.4813 200.706 93.4361 200.621 93.4155C200.537 93.3948 200.448 93.3996 200.367 93.4293C200.313 93.4489 200.263 93.479 200.22 93.518C200.177 93.5569 200.143 93.6039 200.119 93.6563C200.094 93.7086 200.08 93.7652 200.078 93.8229C200.076 93.8806 200.085 93.9382 200.104 93.9924ZM202.959 92.7461C203.002 92.8212 203.067 92.8818 203.145 92.9201C203.223 92.9585 203.31 92.9728 203.396 92.9614C203.482 92.95 203.563 92.9134 203.628 92.8561C203.694 92.7988 203.74 92.7235 203.763 92.6396C203.785 92.5557 203.782 92.4671 203.754 92.3849C203.726 92.3027 203.675 92.2306 203.606 92.1778C203.537 92.125 203.454 92.0937 203.367 92.0881C203.281 92.0824 203.194 92.1026 203.119 92.146C203.069 92.1747 203.025 92.213 202.99 92.2588C202.955 92.3046 202.929 92.3568 202.914 92.4126C202.899 92.4684 202.895 92.5266 202.903 92.5838C202.911 92.6411 202.93 92.6962 202.959 92.7461V92.7461ZM205.553 91.0231C205.609 91.0896 205.683 91.138 205.766 91.1623C205.85 91.1865 205.938 91.1855 206.021 91.1593C206.104 91.1332 206.177 91.0831 206.232 91.0153C206.286 90.9476 206.319 90.8653 206.326 90.7788C206.334 90.6923 206.316 90.6055 206.274 90.5293C206.232 90.4532 206.169 90.3912 206.092 90.3511C206.015 90.311 205.928 90.2947 205.841 90.3042C205.755 90.3136 205.673 90.3484 205.607 90.4042C205.562 90.4412 205.526 90.4866 205.499 90.5378C205.472 90.589 205.456 90.6449 205.451 90.7025C205.446 90.76 205.452 90.8179 205.47 90.873C205.487 90.928 205.516 90.979 205.553 91.0231V91.0231ZM207.809 88.8759C207.875 88.9316 207.957 88.9664 208.043 88.9759C208.129 88.9853 208.217 88.9689 208.294 88.9288C208.371 88.8887 208.434 88.8266 208.476 88.7505C208.517 88.6743 208.536 88.5875 208.528 88.501C208.521 88.4145 208.487 88.3322 208.433 88.2644C208.379 88.1967 208.306 88.1466 208.223 88.1205C208.14 88.0944 208.051 88.0934 207.968 88.1177C207.884 88.142 207.81 88.1904 207.754 88.257C207.717 88.3011 207.689 88.3521 207.671 88.4072C207.654 88.4622 207.648 88.5202 207.653 88.5777C207.658 88.6352 207.674 88.6912 207.701 88.7423C207.728 88.7935 207.764 88.8389 207.809 88.8759V88.8759ZM209.657 86.3695C209.732 86.4128 209.819 86.4329 209.906 86.4272C209.992 86.4215 210.075 86.3901 210.144 86.3372C210.213 86.2843 210.265 86.2122 210.292 86.13C210.32 86.0477 210.323 85.959 210.301 85.8752C210.278 85.7913 210.231 85.716 210.166 85.6587C210.101 85.6015 210.02 85.5649 209.934 85.5536C209.848 85.5423 209.76 85.5567 209.682 85.5952C209.604 85.6336 209.54 85.6942 209.496 85.7694C209.467 85.8194 209.448 85.8745 209.441 85.9318C209.433 85.989 209.437 86.0472 209.452 86.103C209.467 86.1587 209.493 86.211 209.528 86.2567C209.563 86.3024 209.607 86.3408 209.657 86.3695V86.3695ZM211.042 83.5801C211.124 83.6097 211.213 83.6145 211.297 83.5938C211.381 83.5731 211.458 83.5279 211.516 83.4639C211.575 83.3998 211.613 83.3198 211.626 83.234C211.64 83.1482 211.627 83.0604 211.59 82.9817C211.554 82.903 211.494 82.837 211.42 82.792C211.346 82.747 211.26 82.725 211.173 82.7288C211.086 82.7325 211.003 82.762 210.933 82.8133C210.863 82.8646 210.81 82.9356 210.78 83.0172C210.76 83.0714 210.751 83.129 210.753 83.1867C210.756 83.2443 210.77 83.301 210.794 83.3533C210.818 83.4056 210.853 83.4526 210.896 83.4915C210.938 83.5305 210.988 83.5606 211.042 83.5801ZM211.922 80.5926C212.008 80.6076 212.096 80.597 212.175 80.5619C212.255 80.5269 212.322 80.4691 212.369 80.3958C212.415 80.3226 212.439 80.2371 212.437 80.1503C212.435 80.0635 212.408 79.9792 212.358 79.9081C212.308 79.837 212.238 79.7823 212.157 79.7509C212.076 79.7194 211.988 79.7127 211.903 79.7315C211.818 79.7503 211.741 79.7938 211.681 79.8566C211.621 79.9193 211.581 79.9984 211.566 80.0839C211.556 80.1408 211.557 80.1991 211.569 80.2555C211.582 80.3119 211.605 80.3652 211.638 80.4125C211.671 80.4598 211.713 80.5001 211.762 80.531C211.811 80.5619 211.865 80.5829 211.922 80.5926Z" fill="#111416"/>
<path d="M194.409 50.0593L181.611 56.4299L194.409 62.801L207.207 56.4299L194.409 50.0593Z" stroke="#111416" stroke-width="0.915" stroke-linecap="round" stroke-linejoin="round"/>
<path d="M189.385 60.3013V62.8013C189.385 64.1819 191.634 65.3011 194.407 65.3011C197.181 65.3011 199.429 64.1819 199.429 62.8013V60.3013" stroke="#111416" stroke-width="0.915" stroke-linecap="round" stroke-linejoin="round"/>
<path d="M191.129 55.1355L185.068 58.1523V62.4982" stroke="#111416" stroke-width="0.915" stroke-linecap="round" stroke-linejoin="round"/>
<path d="M185.068 62.498C184.762 62.4981 184.467 62.62 184.25 62.8369C184.033 63.0539 183.912 63.3482 183.912 63.655V65.1614H186.225V63.655C186.225 63.5031 186.195 63.3526 186.137 63.2123C186.079 63.0719 185.994 62.9443 185.887 62.8369C185.779 62.7295 185.652 62.6443 185.511 62.5861C185.371 62.528 185.22 62.498 185.068 62.498Z" stroke="#111416" stroke-width="0.915" stroke-linecap="round" stroke-linejoin="round"/>
<path d="M141.725 61.6475L143.38 59.9926" stroke="white" stroke-width="0.915" stroke-linecap="round" stroke-linejoin="round"/>
<path d="M138.319 65.0514L139.974 63.3961" stroke="white" stroke-width="0.915" stroke-linecap="round" stroke-linejoin="round"/>
<path d="M134.916 68.4555L136.571 66.8003" stroke="white" stroke-width="0.915" stroke-linecap="round" stroke-linejoin="round"/>
<g style="mix-blend-mode:multiply">
<path d="M130.311 82.1842H122.316C119.04 82.1842 117.827 84.2732 117.826 85.7685C120.097 87.9828 123.142 89.2222 126.314 89.2221C129.485 89.222 132.531 87.9825 134.801 85.768C134.8 84.2729 133.587 82.1842 130.311 82.1842Z" fill="#A6BDB9"/>
</g>
<path d="M126.382 89.2222C133.1 89.1852 138.517 83.7087 138.48 76.9901C138.443 70.2715 132.966 64.8551 126.248 64.8921C119.529 64.9292 114.113 70.4057 114.15 77.1243C114.187 83.8428 119.663 89.2593 126.382 89.2222Z" stroke="#111416" stroke-width="0.915" stroke-linecap="round" stroke-linejoin="round"/>
<path d="M134.801 85.7702C134.801 84.2748 133.589 82.1845 130.311 82.1845H122.316C119.039 82.1845 117.826 84.2748 117.826 85.7702M121.582 73.5587V77.4519C121.581 78.0736 121.703 78.6894 121.941 79.2639C122.178 79.8385 122.527 80.3606 122.966 80.8004C123.406 81.2402 123.928 81.5891 124.502 81.8272C125.076 82.0652 125.692 82.1877 126.314 82.1877C126.935 82.1877 127.551 82.0652 128.125 81.8272C128.7 81.5891 129.222 81.2402 129.661 80.8004C130.101 80.3606 130.449 79.8385 130.687 79.2639C130.924 78.6894 131.046 78.0736 131.046 77.4519V73.5587H121.582Z" stroke="#111416" stroke-width="0.915" stroke-linecap="round" stroke-linejoin="round"/>
<path d="M125.676 76.9988V78.564H126.275" stroke="#111416" stroke-width="0.915" stroke-linecap="round" stroke-linejoin="round"/>
<path d="M123.88 76.4922C124.108 76.4922 124.294 76.3068 124.294 76.078C124.294 75.8493 124.108 75.6638 123.88 75.6638C123.651 75.6638 123.465 75.8493 123.465 76.078C123.465 76.3068 123.651 76.4922 123.88 76.4922Z" fill="#111416"/>
<path d="M127.977 76.4922C128.206 76.4922 128.391 76.3068 128.391 76.078C128.391 75.8493 128.206 75.6638 127.977 75.6638C127.748 75.6638 127.563 75.8493 127.563 76.078C127.563 76.3068 127.748 76.4922 127.977 76.4922Z" fill="#111416"/>
<path d="M127.977 84.9751C128.206 84.9751 128.391 84.7897 128.391 84.5609C128.391 84.3322 128.206 84.1467 127.977 84.1467C127.748 84.1467 127.563 84.3322 127.563 84.5609C127.563 84.7897 127.748 84.9751 127.977 84.9751Z" fill="#111416"/>
<path d="M131.046 73.5588H121.582C120.702 73.5588 120.295 72.3159 120.295 69.9683H128.155C128.373 69.9564 128.591 69.9904 128.796 70.0681C129 70.1459 129.186 70.2656 129.341 70.4196C129.496 70.5736 129.617 70.7584 129.696 70.9621C129.776 71.1658 129.811 71.3839 129.801 71.6022C129.959 71.5939 130.117 71.6173 130.265 71.671C130.414 71.7248 130.551 71.8077 130.667 71.915C130.783 72.0222 130.876 72.1517 130.941 72.2956C131.007 72.4396 131.042 72.5952 131.046 72.7531V73.5588Z" stroke="#111416" stroke-width="0.915" stroke-linecap="round" stroke-linejoin="round"/>
<path d="M126.313 82.1847V86.0567" stroke="#111416" stroke-width="0.915" stroke-linecap="round" stroke-linejoin="round"/>
<path d="M138.479 77.0574H179.297" stroke="#111416" stroke-width="0.915" stroke-linecap="round" stroke-linejoin="round"/>
<path d="M126.313 64.8922V52.9237" stroke="#111416" stroke-width="0.915" stroke-linecap="round" stroke-linejoin="round"/>
<path d="M117.712 68.4554L109.249 59.9926" stroke="#111416" stroke-width="0.915" stroke-linecap="round" stroke-linejoin="round"/>
<g style="mix-blend-mode:multiply">
<path d="M132.521 46.7162C132.521 47.944 132.157 49.1442 131.475 50.165C130.793 51.1858 129.823 51.9815 128.689 52.4513C127.555 52.9211 126.307 53.044 125.102 52.8044C123.898 52.5649 122.792 51.9736 121.924 51.1055C121.056 50.2373 120.465 49.1312 120.225 47.927C119.986 46.7228 120.109 45.4747 120.579 44.3404C121.048 43.2061 121.844 42.2366 122.865 41.5545C123.886 40.8724 125.086 40.5084 126.314 40.5084C127.129 40.5084 127.936 40.669 128.689 40.981C129.442 41.293 130.127 41.7502 130.703 42.3267C131.28 42.9031 131.737 43.5875 132.049 44.3406C132.361 45.0938 132.521 45.901 132.521 46.7162Z" fill="#A6BDB9"/>
<path d="M132.521 46.7162C132.521 47.944 132.157 49.1442 131.475 50.165C130.793 51.1858 129.823 51.9815 128.689 52.4513C127.555 52.9211 126.307 53.044 125.102 52.8044C123.898 52.5649 122.792 51.9736 121.924 51.1055C121.056 50.2373 120.465 49.1312 120.225 47.927C119.986 46.7228 120.109 45.4747 120.579 44.3404C121.048 43.2061 121.844 42.2366 122.865 41.5545C123.886 40.8724 125.086 40.5084 126.314 40.5084C127.129 40.5084 127.936 40.669 128.689 40.981C129.442 41.293 130.127 41.7502 130.703 42.3267C131.28 42.9031 131.737 43.5875 132.049 44.3406C132.361 45.0938 132.521 45.901 132.521 46.7162Z" stroke="#111416" stroke-width="0.915" stroke-linecap="round" stroke-linejoin="round"/>
</g>
<path d="M124.204 44.4365C124.871 44.4673 125.537 44.3405 126.146 44.0664C126.756 43.7922 127.292 43.3784 127.712 42.8585M126.313 46.5464C126.73 46.5464 127.138 46.4227 127.485 46.191C127.832 45.9592 128.102 45.6298 128.262 45.2444C128.422 44.8589 128.463 44.4348 128.382 44.0256C128.301 43.6164 128.1 43.2405 127.805 42.9454C127.51 42.6504 127.134 42.4494 126.725 42.368C126.316 42.2865 125.892 42.3282 125.506 42.4878C125.121 42.6474 124.791 42.9177 124.559 43.2646C124.327 43.6115 124.204 44.0193 124.204 44.4365C124.204 44.996 124.426 45.5325 124.821 45.9282C125.217 46.3239 125.753 46.5462 126.313 46.5464ZM130.097 48.825C130.097 47.8749 129.557 46.5464 128.095 46.5464H124.531C123.07 46.5464 122.529 47.8749 122.529 48.825H130.097Z" stroke="white" stroke-width="0.915" stroke-linecap="round" stroke-linejoin="round"/>
<path d="M102.838 53.2399C103.506 53.2708 104.171 53.144 104.781 52.8698C105.39 52.5957 105.927 52.1819 106.347 51.6619M104.947 55.3499C105.364 55.3499 105.772 55.2262 106.119 54.9944C106.466 54.7627 106.737 54.4333 106.896 54.0478C107.056 53.6624 107.098 53.2383 107.016 52.829C106.935 52.4198 106.734 52.044 106.439 51.7489C106.144 51.4539 105.768 51.2529 105.359 51.1715C104.95 51.09 104.526 51.1317 104.14 51.2913C103.755 51.4509 103.425 51.7212 103.194 52.0681C102.962 52.4149 102.838 52.8227 102.838 53.2399C102.838 53.7994 103.06 54.336 103.456 54.7317C103.851 55.1273 104.388 55.3497 104.947 55.3499V55.3499ZM108.731 57.6285C108.731 56.6784 108.191 55.3499 106.729 55.3499H103.165C101.704 55.3499 101.164 56.6784 101.164 57.6285H108.731Z" stroke="#111416" stroke-width="0.915" stroke-linecap="round" stroke-linejoin="round"/>
<path d="M145.659 53.3233C146.327 53.3541 146.993 53.2274 147.602 52.9532C148.212 52.6791 148.748 52.2653 149.168 51.7453M111.155 55.5199C111.155 56.7477 110.79 57.9479 110.108 58.9687C109.426 59.9895 108.457 60.7852 107.322 61.255C106.188 61.7248 104.94 61.8477 103.736 61.6082C102.532 61.3686 101.425 60.7774 100.557 59.9092C99.6892 59.041 99.098 57.9349 98.8585 56.7307C98.619 55.5265 98.742 54.2784 99.2118 53.1441C99.6817 52.0098 100.477 51.0403 101.498 50.3582C102.519 49.6762 103.719 49.3121 104.947 49.3121C105.762 49.3121 106.569 49.4727 107.323 49.7847C108.076 50.0967 108.76 50.554 109.337 51.1304C109.913 51.7069 110.37 52.3912 110.682 53.1444C110.994 53.8975 111.155 54.7047 111.155 55.5199V55.5199ZM147.769 55.4332C148.186 55.4333 148.594 55.3096 148.941 55.0778C149.288 54.8461 149.558 54.5166 149.718 54.1312C149.877 53.7458 149.919 53.3216 149.838 52.9124C149.756 52.5032 149.556 52.1273 149.261 51.8323C148.966 51.5372 148.59 51.3363 148.181 51.2548C147.771 51.1734 147.347 51.2151 146.962 51.3747C146.576 51.5343 146.247 51.8046 146.015 52.1515C145.783 52.4983 145.659 52.9061 145.659 53.3233C145.659 53.8828 145.882 54.4194 146.277 54.815C146.673 55.2107 147.209 55.4331 147.769 55.4332V55.4332ZM151.553 57.7119C151.553 56.7617 151.012 55.4332 149.551 55.4332H145.987C144.526 55.4332 143.985 56.7617 143.985 57.7119H151.553Z" stroke="#111416" stroke-width="0.915" stroke-linecap="round" stroke-linejoin="round"/>
<path d="M153.976 55.6027C153.976 56.8305 153.612 58.0307 152.93 59.0515C152.247 60.0723 151.278 60.8679 150.144 61.3378C149.009 61.8076 147.761 61.9305 146.557 61.6909C145.353 61.4514 144.247 60.8601 143.379 59.9919C142.51 59.1238 141.919 58.0177 141.68 56.8135C141.44 55.6093 141.563 54.3612 142.033 53.2269C142.503 52.0926 143.299 51.1231 144.32 50.441C145.34 49.7589 146.541 49.3949 147.768 49.3949C148.584 49.3949 149.391 49.5555 150.144 49.8675C150.897 50.1795 151.581 50.6367 152.158 51.2132C152.734 51.7896 153.191 52.474 153.503 53.2271C153.815 53.9803 153.976 54.7875 153.976 55.6027V55.6027Z" stroke="#111416" stroke-width="0.915" stroke-linecap="round" stroke-linejoin="round"/>
<path d="M125.875 91.1315C125.875 91.2184 125.9 91.3032 125.949 91.3754C125.997 91.4476 126.065 91.5038 126.146 91.537C126.226 91.5702 126.314 91.5789 126.399 91.5619C126.485 91.545 126.563 91.5031 126.624 91.4417C126.686 91.3803 126.727 91.3021 126.744 91.217C126.761 91.1318 126.753 91.0435 126.719 90.9633C126.686 90.8831 126.63 90.8145 126.558 90.7662C126.486 90.718 126.401 90.6922 126.314 90.6921C126.256 90.692 126.199 90.7033 126.146 90.7253C126.092 90.7473 126.044 90.7797 126.003 90.8205C125.962 90.8614 125.93 90.9099 125.908 90.9632C125.886 91.0166 125.874 91.0738 125.875 91.1315V91.1315ZM125.875 93.5253C125.875 93.6121 125.9 93.697 125.949 93.7692C125.997 93.8413 126.065 93.8976 126.146 93.9308C126.226 93.964 126.314 93.9727 126.399 93.9557C126.485 93.9387 126.563 93.8969 126.624 93.8355C126.686 93.7741 126.727 93.6959 126.744 93.6108C126.761 93.5256 126.753 93.4374 126.719 93.3571C126.686 93.2769 126.63 93.2083 126.558 93.16C126.486 93.1118 126.401 93.086 126.314 93.0859C126.256 93.0858 126.199 93.0971 126.146 93.1191C126.092 93.1411 126.044 93.1735 126.003 93.2143C125.962 93.2552 125.93 93.3036 125.908 93.357C125.886 93.4104 125.874 93.4676 125.875 93.5253ZM125.875 95.9191C125.875 96.0059 125.9 96.0908 125.949 96.163C125.997 96.2351 126.065 96.2914 126.146 96.3246C126.226 96.3578 126.314 96.3664 126.399 96.3495C126.485 96.3325 126.563 96.2907 126.624 96.2293C126.686 96.1679 126.727 96.0897 126.744 96.0046C126.761 95.9194 126.753 95.8312 126.719 95.7509C126.686 95.6707 126.63 95.6021 126.558 95.5538C126.486 95.5056 126.401 95.4798 126.314 95.4797C126.256 95.4796 126.199 95.4909 126.146 95.5129C126.092 95.5349 126.044 95.5673 126.003 95.6081C125.962 95.6489 125.93 95.6974 125.908 95.7508C125.886 95.8042 125.874 95.8614 125.875 95.9191V95.9191ZM125.875 98.3129C125.875 98.3997 125.9 98.4846 125.949 98.5568C125.997 98.6289 126.065 98.6852 126.146 98.7184C126.226 98.7516 126.314 98.7602 126.399 98.7433C126.485 98.7263 126.563 98.6845 126.624 98.6231C126.686 98.5617 126.727 98.4835 126.744 98.3984C126.761 98.3132 126.753 98.2249 126.719 98.1447C126.686 98.0645 126.63 97.9959 126.558 97.9476C126.486 97.8994 126.401 97.8736 126.314 97.8735C126.256 97.8734 126.199 97.8847 126.146 97.9067C126.092 97.9287 126.044 97.9611 126.003 98.0019C125.962 98.0427 125.93 98.0912 125.908 98.1446C125.886 98.198 125.874 98.2552 125.875 98.3129V98.3129ZM125.875 100.707C125.875 100.794 125.9 100.878 125.949 100.951C125.997 101.023 126.065 101.079 126.146 101.112C126.226 101.145 126.314 101.154 126.399 101.137C126.485 101.12 126.563 101.078 126.624 101.017C126.686 100.956 126.727 100.877 126.744 100.792C126.761 100.707 126.753 100.619 126.719 100.539C126.686 100.458 126.63 100.39 126.558 100.341C126.486 100.293 126.401 100.267 126.314 100.267C126.256 100.267 126.199 100.278 126.146 100.3C126.092 100.323 126.044 100.355 126.003 100.396C125.962 100.437 125.93 100.485 125.908 100.538C125.886 100.592 125.874 100.649 125.875 100.707V100.707Z" fill="#111416"/>
<path d="M166.328 72.2083H158.871" stroke="white" stroke-width="0.915" stroke-linecap="round" stroke-linejoin="round"/>
<path d="M164.438 70.3173L166.329 72.2083L164.438 74.099" stroke="white" stroke-width="0.915" stroke-linecap="round" stroke-linejoin="round"/>
<g style="mix-blend-mode:multiply">
<g style="mix-blend-mode:multiply">
<path d="M158.871 81.9058H166.328" stroke="#A6BDB9" stroke-width="0.915" stroke-linecap="round" stroke-linejoin="round"/>
</g>
<g style="mix-blend-mode:multiply">
<path d="M160.762 83.7969L158.871 81.906L160.762 80.0153" stroke="#A6BDB9" stroke-width="0.915" stroke-linecap="round" stroke-linejoin="round"/>
</g>
</g>
<g style="mix-blend-mode:multiply">
<path d="M245.238 47.6302C245.725 48.1157 246.384 48.3884 247.071 48.3884C247.758 48.3884 248.417 48.1157 248.904 47.6302C249.39 47.1444 250.049 46.8716 250.736 46.8716C251.423 46.8716 252.082 47.1444 252.568 47.6302C253.054 48.1157 253.713 48.3884 254.4 48.3884C255.087 48.3884 255.746 48.1157 256.231 47.6302C256.717 47.1444 257.376 46.8716 258.063 46.8716C258.75 46.8716 259.409 47.1444 259.895 47.6302" stroke="#A6BDB9" stroke-width="0.915" stroke-linecap="round"/>
</g>
<path d="M91.0108 68.142H88.1143" stroke="white" stroke-width="0.915" stroke-linecap="round"/>
<path d="M82.7066 68.142H68.916" stroke="white" stroke-width="0.915" stroke-linecap="round"/>
<g style="mix-blend-mode:multiply">
<path d="M69.518 81.0035H45.979" stroke="#A6BDB9" stroke-width="0.915" stroke-linecap="round"/>
</g>
<path d="M298.666 60.4729H288.447" stroke="white" stroke-width="0.915" stroke-linecap="round"/>
<g style="mix-blend-mode:multiply">
<path d="M289.827 64.7917H284.579" stroke="#A6BDB9" stroke-width="0.915" stroke-linecap="round"/>
</g>
<g style="mix-blend-mode:multiply">
<g style="mix-blend-mode:multiply">
<path d="M174.704 97.2992H171.807" stroke="#A6BDB9" stroke-width="0.915" stroke-linecap="round"/>
</g>
<g style="mix-blend-mode:multiply">
<path d="M166.398 97.2993H147.287" stroke="#A6BDB9" stroke-width="0.915" stroke-linecap="round"/>
</g>
</g>
<path d="M159.24 91.4072H139.649" stroke="white" stroke-width="0.915" stroke-linecap="round"/>
<g style="mix-blend-mode:multiply">
<path d="M249.729 42.1593H238.827" stroke="#A6BDB9" stroke-width="0.915" stroke-linecap="round"/>
</g>
<g style="mix-blend-mode:multiply">
<g style="mix-blend-mode:multiply">
<path d="M155.583 103.646V104.866" stroke="#A6BDB9" stroke-width="0.915" stroke-linecap="round" stroke-linejoin="round"/>
</g>
<g style="mix-blend-mode:multiply">
<path d="M154.386 106.062H153.166" stroke="#A6BDB9" stroke-width="0.915" stroke-linecap="round" stroke-linejoin="round"/>
</g>
<g style="mix-blend-mode:multiply">
<path d="M155.583 108.479V107.259" stroke="#A6BDB9" stroke-width="0.915" stroke-linecap="round" stroke-linejoin="round"/>
</g>
<g style="mix-blend-mode:multiply">
<path d="M156.779 106.062H157.999" stroke="#A6BDB9" stroke-width="0.915" stroke-linecap="round" stroke-linejoin="round"/>
</g>
</g>
<g style="mix-blend-mode:multiply">
<g style="mix-blend-mode:multiply">
<path d="M63.1899 72.4235V73.6432" stroke="#A6BDB9" stroke-width="0.915" stroke-linecap="round" stroke-linejoin="round"/>
</g>
<g style="mix-blend-mode:multiply">
<path d="M61.9922 74.8401H60.7725" stroke="#A6BDB9" stroke-width="0.915" stroke-linecap="round" stroke-linejoin="round"/>
</g>
<g style="mix-blend-mode:multiply">
<path d="M63.1899 77.2561V76.0364" stroke="#A6BDB9" stroke-width="0.915" stroke-linecap="round" stroke-linejoin="round"/>
</g>
<g style="mix-blend-mode:multiply">
<path d="M64.3862 74.8401H65.6059" stroke="#A6BDB9" stroke-width="0.915" stroke-linecap="round" stroke-linejoin="round"/>
</g>
</g>
<path d="M231.035 81.4639C231.193 81.6222 231.381 81.7478 231.588 81.8334C231.794 81.9191 232.016 81.9632 232.239 81.9632C232.463 81.9632 232.685 81.9191 232.891 81.8334C233.098 81.7478 233.286 81.6222 233.444 81.4639C233.764 81.1445 234.197 80.9651 234.649 80.9651C235.101 80.9651 235.534 81.1445 235.854 81.4639" stroke="white" stroke-width="0.915" stroke-linecap="round"/>
<path d="M220.463 60.1967L217.978 62.6827L220.463 65.1685L217.978 67.6542L220.463 70.14L217.978 72.6257L220.463 75.1115L217.978 77.5972L220.463 80.083L217.978 82.5687" stroke="white" stroke-width="0.915" stroke-linecap="round" stroke-linejoin="round"/>
<path d="M171.765 55.9709L174.251 53.4851L171.765 50.9994L174.251 48.5136L171.765 46.0279L174.251 43.5418L171.765 41.0561L174.251 38.5703" stroke="white" stroke-width="0.915" stroke-linecap="round" stroke-linejoin="round"/>
<path d="M315.749 88.0929L313.264 90.5786L315.749 93.0644L313.264 95.5501L315.749 98.0359L313.264 100.522" stroke="white" stroke-width="0.915" stroke-linecap="round" stroke-linejoin="round"/>
</svg>
